<svg width="22" height="22" viewBox="0 0 22 22" fill="none" xmlns="http://www.w3.org/2000/svg">
<path d="M10.3701 12.917C12.9811 12.9534 15.6964 13.0776 17.4014 13.1816L17.4004 13.1826C19.0236 13.2643 20.1409 14.0213 20.8516 14.9395C21.5442 15.8344 21.8467 16.8723 21.917 17.5811L21.9209 17.6172V22H20.4209V17.7002C20.3679 17.2227 20.148 16.4826 19.665 15.8584C19.1911 15.2461 18.4609 14.7354 17.3184 14.6797L17.3096 14.6787C15.6228 14.5758 12.9321 14.453 10.3496 14.417C7.73644 14.3806 5.32542 14.4363 4.14355 14.667C2.08969 15.0681 1.5705 16.8175 1.57031 17.6543V22H0.0703125V17.6543C0.0704968 16.4217 0.82379 13.7864 3.85645 13.1943C5.21842 12.9285 7.78964 12.881 10.3701 12.917ZM10.9971 0C14.1582 0 16.7207 2.50159 16.7207 5.58691L16.7129 5.87402C16.5595 8.8257 14.0593 11.1729 10.9971 11.1729C7.93481 11.1728 5.43459 8.8257 5.28125 5.87402L5.27344 5.58691C5.27344 2.5016 7.83599 6.53988e-06 10.9971 0ZM10.9971 1.5C8.62991 1.50001 6.77344 3.36412 6.77344 5.58691C6.77368 7.80952 8.63007 9.67284 10.9971 9.67285C13.3641 9.67285 15.2205 7.80952 15.2207 5.58691C15.2207 3.36411 13.3642 1.5 10.9971 1.5Z" fill="black"/>
</svg>
